#!OML:ASF F:\VICON\USERDATA\INSTALL\rory3\rory3.ASF
:FULLY-SPECIFIED
:DEGREES
1254
root 2.13079 17.8927 10.2735 -174.237 2.05859 179.243
lowerback 6.11793 0.611021 -1.55956
upperback 0.636206 0.819345 1.80314
thorax -2.82231 0.459708 2.66647
lowerneck -16.1553 -1.03076 -7.95071
upperneck 37.4994 6.11816 -1.1453
head 16.0011 2.60702 2.39211
rclavicle 7.95139e-016 3.65764e-014
rhumerus -36.2717 -8.66423 -80.4931
rradius 29.5553
rwrist 23.3792
rhand -17.8402 3.13786
rfingers 7.12502
rthumb 8.42459 -26.6741
lclavicle 7.95139e-016 3.65764e-014
lhumerus -45.4991 24.7153 68.8204
lradius 22.9443
lwrist -19.2801
lhand -3.27432 27.6839
lfingers 7.12502
lthumb 22.4507 56.3991
rfemur -11.8986 2.54287 24.7574
rtibia 25.2106
rfoot -17.3752 -2.53629
rtoes 15.4449
lfemur -29.3794 0.443993 -18.1062
ltibia 41.2451
lfoot -12.5673 0.852313
ltoes -21.2656
1255
root 2.12236 17.8994 10.3419 -174.311 2.10037 179.29
lowerback 6.19006 0.639018 -1.37162
upperback 0.566556 0.86652 1.7671
thorax -2.93408 0.481809 2.51827
lowerneck -16.0501 -1.03722 -7.85023
upperneck 37.4372 6.08437 -1.22423
head 15.9516 2.60306 2.33042
rclavicle -2.18663e-015 1.82882e-014
rhumerus -36.2044 -8.38427 -80.6326
rradius 29.6394
rwrist 23.5859
rhand -17.7451 3.15805
rfingers 7.12502
rthumb 8.51631 -26.6502
lclavicle -2.18663e-015 1.82882e-014
lhumerus -44.8808 24.0284 69.5366
lradius 23.5503
lwrist -18.8374
lhand -3.77242 27.6124
lfingers 7.12502
lthumb 21.9725 56.3844
rfemur -12.1017 2.36599 24.7713
rtibia 25.2531
rfoot -17.1643 -2.43951
rtoes 15.2416
lfemur -28.8574 0.492505 -17.9941
ltibia 42.1779
lfoot -12.838 0.583316
ltoes -21.9686
1256
root 2.11261 17.9056 10.4085 -174.252 2.15136 179.307
lowerback 6.01003 0.705477 -1.22928
upperback 0.551622 0.964065 1.75488
thorax -2.85147 0.527372 2.41851
lowerneck -16.0267 -1.09863 -7.94431
upperneck 37.3545 5.94436 -1.1306
head 15.9015 2.54255 2.35698
rclavicle 7.95139e-015 1.35174e-014
rhumerus -35.9798 -8.0988 -80.6761
rradius 29.8618
rwrist 23.9722
rhand -17.2264 2.73156
rfingers 7.12502
rthumb 9.0169 -27.0557
lclavicle 7.95139e-015 1.35174e-014
lhumerus -44.1325 23.5282 70.2644
lradius 24.0777
lwrist -18.52
lhand -4.37022 27.5527
lfingers 7.12502
lthumb 21.3984 56.3911
rfemur -12.4542 2.17139 24.7365
rtibia 25.3014
rfoot -16.9185 -2.2573
rtoes 15.0834
lfemur -28.4648 0.566546 -17.9486
ltibia 43.0087
lfoot -12.893 0.391162
ltoes -22.3155
1257
root 2.10419 17.9104 10.4763 -174.164 2.36537 179.412
lowerback 5.86829 0.758613 -1.08192
upperback 0.549592 1.04797 1.80777
thorax -2.77695 0.567656 2.38454
lowerneck -16.2022 -1.06951 -7.98744
upperneck 37.2721 5.96648 -1.13377
head 15.8996 2.53114 2.36513
rclavicle -6.55989e-015 3.33958e-014
rhumerus -35.4858 -7.84889 -80.6752
rradius 29.9261
rwrist 24.7424
rhand -16.46 1.88977
rfingers 7.12502
rthumb 9.75639 -27.8642
lclavicle -6.55989e-015 3.33958e-014
lhumerus -43.3364 23.2079 70.9353
lradius 24.5196
lwrist -18.1242
lhand -4.97495 27.411
lfingers 7.12502
lthumb 20.8175 56.3142
rfemur -12.8463 2.08084 24.7839
rtibia 25.3443
rfoot -16.6135 -1.92876
rtoes 15.0964
lfemur -28.0855 0.857395 -17.8489
ltibia 43.7656
lfoot -12.9343 0.304889
ltoes -22.2785
1258
root 2.09529 17.9164 10.5442 -174.182 2.53676 179.396
lowerback 5.84619 0.772421 -1.07499
upperback 0.569821 1.06993 1.8543
thorax -2.74559 0.579147 2.42726
lowerneck -16.5207 -1.03181 -7.94098
upperneck 37.3167 6.08009 -1.26701
head 16.004 2.54881 2.32866
rclavicle 8.94531e-016 -3.4191e-014
rhumerus -35.013 -7.62094 -80.6531
rradius 29.8695
rwrist 24.9883
rhand -16.1833 2.30682
rfingers 7.12502
rthumb 10.0233 -27.4345
lclavicle 8.94531e-016 -3.4191e-014
lhumerus -42.6193 22.9509 71.6037
lradius 25.097
lwrist -17.6609
lhand -5.66626 27.3651
lfingers 7.12502
lthumb 20.1532 56.3398
rfemur -13.1194 2.14461 24.7001
rtibia 25.4222
rfoot -16.4201 -1.75873
rtoes 15.0948
lfemur -27.5288 1.12916 -17.9045
ltibia 44.459
lfoot -12.8855 0.182965
ltoes -21.8945
1259
root 2.08877 17.9192 10.6152 -174.213 2.55459 179.355
lowerback 5.85718 0.774093 -1.13119
upperback 0.542679 1.06941 1.88515
thorax -2.78135 0.580155 2.49063
lowerneck -16.7792 -1.09788 -7.82802
upperneck 37.5695 6.09494 -1.40323
head 16.2086 2.54422 2.27265
rclavicle 5.66536e-015 9.54166e-015
rhumerus -34.7341 -7.25072 -80.7033
rradius 29.8644
rwrist 24.6693
rhand -15.8567 3.21989
rfingers 7.12502
rthumb 10.3384 -26.506
lclavicle 5.66536e-015 9.54166e-015
lhumerus -42.0159 22.4989 72.2809
lradius 25.8896
lwrist -17.0615
lhand -6.35066 27.6161
lfingers 7.12502
lthumb 19.4952 56.6587
rfemur -13.375 2.22345 24.605
rtibia 25.4984
rfoot -16.326 -1.73351
rtoes 15.4679
lfemur -26.9563 1.32983 -17.975
ltibia 45.1303
lfoot -12.7349 -0.0682281
ltoes -21.1269
1260
root 2.0815 17.9179 10.6885 -174.177 2.50009 179.363
lowerback 5.84209 0.729685 -1.12901
upperback 0.502089 1.01088 1.90942
thorax -2.81213 0.551461 2.51935
lowerneck -17.0023 -1.1101 -7.68251
upperneck 37.7216 6.12853 -1.51903
head 16.3512 2.55289 2.21598
rclavicle 6.55989e-015 -3.49861e-014
rhumerus -34.4456 -6.99676 -80.7084
rradius 30.0529
rwrist 25.0345
rhand -14.8054 3.01935
rfingers 7.12502
rthumb 11.3524 -26.6534
lclavicle 6.55989e-015 -3.49861e-014
lhumerus -41.3627 22.117 72.8486
lradius 26.5938
lwrist -16.3546
lhand -6.98001 27.7521
lfingers 7.12502
lthumb 18.8901 56.8549
rfemur -13.6998 2.16469 24.5701
rtibia 25.5468
rfoot -16.0722 -1.65113
rtoes 15.6687
lfemur -26.4666 1.58465 -18.0172
ltibia 45.7762
lfoot -12.7451 -0.325227
ltoes -20.921
1261
root 2.07199 17.918 10.7552 -174.1 2.43804 179.449
lowerback 5.65766 0.668956 -1.0144
upperback 0.499662 0.93994 1.9565
thorax -2.70657 0.514542 2.51103
lowerneck -16.9984 -1.06825 -7.71138
upperneck 37.522 6.11442 -1.51902
head 16.2448 2.53523 2.20674
rclavicle 5.96354e-016 1.82882e-014
rhumerus -34.0893 -6.71889 -80.7325
rradius 30.2357
rwrist 25.0596
rhand -14.3987 2.85243
rfingers 7.12502
rthumb 11.7447 -26.7983
lclavicle 5.96354e-016 1.82882e-014
lhumerus -40.6316 21.5792 73.5677
lradius 27.2999
lwrist -15.5402
lhand -7.69948 28.0965
lfingers 7.12502
lthumb 18.198 57.2653
rfemur -14.0519 2.00818 24.6274
rtibia 25.5949
rfoot -15.7351 -1.63361
rtoes 14.5143
lfemur -25.9547 1.80272 -17.997
ltibia 46.3651
lfoot -12.9098 -0.496868
ltoes -22.0038
1262
root 2.05728 17.9213 10.8189 -174.07 2.3866 179.601
lowerback 5.45546 0.608754 -0.76422
upperback 0.49438 0.879944 2.03033
thorax -2.59314 0.482552 2.45281
lowerneck -16.8409 -1.0412 -7.75554
upperneck 37.268 6.1286 -1.6432
head 16.0822 2.5217 2.14775
rclavicle -6.4605e-015 -2.22639e-014
rhumerus -33.6948 -6.3155 -80.7989
rradius 30.0807
rwrist 24.1021
rhand -15.4317 3.76109
rfingers 7.12502
rthumb 10.7484 -25.9439
lclavicle -6.4605e-015 -2.22639e-014
lhumerus -39.9782 20.8758 74.3995
lradius 28.162
lwrist -14.661
lhand -8.37296 28.7625
lfingers 7.12502
lthumb 17.55 57.9904
rfemur -14.3226 1.78422 24.7307
rtibia 25.6409
rfoot -15.4703 -1.47491
rtoes 14.3725
lfemur -25.3111 1.99562 -17.9255
ltibia 46.8813
lfoot -13.0975 -0.625659
ltoes -22.9143
1263
root 2.04991 17.9218 10.8804 -174.098 2.36872 179.613
lowerback 5.3669 0.56918 -0.773118
upperback 0.460945 0.829195 2.09354
thorax -2.5766 0.458077 2.52768
lowerneck -16.7771 -1.01336 -7.75924
upperneck 37.2146 6.1929 -1.72809
head 16.0432 2.54096 2.1203
rclavicle -1.0635e-014 -4.69132e-014
rhumerus -33.3134 -6.31255 -80.6222
rradius 30.1332
rwrist 24.8629
rhand -15.7128 3.26596
rfingers 7.12502
rthumb 10.4772 -26.453
lclavicle -1.0635e-014 -4.69132e-014
lhumerus -39.4872 20.231 75.0672
lradius 28.9805
lwrist -14.1109
lhand -9.10779 28.8195
lfingers 7.12502
lthumb 16.8427 58.1091
rfemur -14.5315 1.77381 24.7032
rtibia 25.6815
rfoot -15.3703 -1.4987
rtoes 14.6132
lfemur -24.5787 2.27116 -17.998
ltibia 47.2923
lfoot -13.3188 -0.684531
ltoes -23.3486
1264
root 2.04111 17.9233 10.946 -174.021 2.28946 179.624
lowerback 5.28705 0.547421 -0.719141
upperback 0.349616 0.803116 2.11845
thorax -2.64495 0.445037 2.5253
lowerneck -16.6709 -1.02201 -7.72325
upperneck 37.1919 6.1876 -1.78878
head 16.011 2.54378 2.08501
rclavicle -4.27387e-015 -4.69132e-014
rhumerus -33.1468 -6.25493 -80.5412
rradius 30.3057
rwrist 24.3621
rhand -17.1211 3.45063
rfingers 7.12502
rthumb 9.11847 -26.3323
lclavicle -4.27387e-015 -4.69132e-014
lhumerus -38.97 19.4962 75.6439
lradius 29.4747
lwrist -13.8885
lhand -10.4075 28.108
lfingers 7.12502
lthumb 15.5912 57.4996
rfemur -14.8837 1.47009 24.6808
rtibia 25.7247
rfoot -15.1314 -1.40537
rtoes 14.368
lfemur -23.9734 2.53617 -18.1087
ltibia 47.5983
lfoot -13.5865 -0.586231
ltoes -24.2577
1265
root 2.03214 17.9274 11.0137 -173.831 2.16 179.559
lowerback 5.04516 0.488389 -0.733394
upperback 0.258003 0.720313 2.12093
thorax -2.59985 0.4027 2.54352
lowerneck -16.7101 -1.03629 -7.80798
upperneck 37.2024 6.13843 -1.6706
head 16.0181 2.52335 2.14182
rclavicle 1.78906e-015 -1.27222e-014
rhumerus -32.8348 -6.14588 -80.5076
rradius 30.4697
rwrist 23.6663
rhand -17.7288 3.82727
rfingers 7.12502
rthumb 8.53209 -25.9804
lclavicle 1.78906e-015 -1.27222e-014
lhumerus -38.376 19.0292 76.1024
lradius 29.8275
lwrist -13.999
lhand -11.8606 26.8028
lfingers 7.12502
lthumb 14.1913 56.298
rfemur -15.3985 1.24232 24.5836
rtibia 25.8187
rfoot -14.9693 -1.44008
rtoes 13.8228
lfemur -23.462 2.7048 -18.3062
ltibia 47.7624
lfoot -13.8076 -0.385521
ltoes -25.5499
1266
root 2.02625 17.9324 11.0798 -173.727 2.04483 179.461
lowerback 4.85281 0.425254 -0.886975
upperback 0.221734 0.627316 2.1674
thorax -2.52687 0.357498 2.68588
lowerneck -16.7851 -1.01838 -7.94346
upperneck 37.179 6.13526 -1.53032
head 16.0124 2.5149 2.22372
rclavicle -8.74653e-015 -1.74931e-014
rhumerus -32.4194 -6.17746 -80.3542
rradius 30.6823
rwrist 23.536
rhand -17.3172 3.17476
rfingers 7.12502
rthumb 8.92923 -26.6163
lclavicle -8.74653e-015 -1.74931e-014
lhumerus -37.7832 18.5528 76.6446
lradius 30.5389
lwrist -13.5123
lhand -12.4321 26.1727
lfingers 7.12502
lthumb 13.6406 55.7058
rfemur -15.7933 1.43132 24.4522
rtibia 25.9201
rfoot -15.022 -1.78441
rtoes 13.7856
lfemur -22.8337 2.9321 -18.5255
ltibia 47.7969
lfoot -13.9501 -0.394804
ltoes -26.0689
1267
root 2.01871 17.9346 11.1434 -173.671 1.93945 179.335
lowerback 4.716 0.35025 -1.0481
upperback 0.172556 0.516919 2.18423
thorax -2.49646 0.303484 2.80242
lowerneck -16.8128 -0.98613 -7.97027
upperneck 37.1945 6.16518 -1.46431
head 16.0205 2.5302 2.26266
rclavicle 2.78299e-015 2.38542e-014
rhumerus -32.1062 -6.27777 -80.217
rradius 31.0207
rwrist 23.6529
rhand -17.2531 2.99306
rfingers 7.12502
rthumb 8.99115 -26.7953
lclavicle 2.78299e-015 2.38542e-014
lhumerus -37.1983 17.8513 77.2278
lradius 31.5997
lwrist -12.1067
lhand -12.116 26.7489
lfingers 7.12502
lthumb 13.9452 56.2613
rfemur -16.1413 1.49209 24.2777
rtibia 26.0241
rfoot -15.0194 -1.96089
rtoes 14.1536
lfemur -22.1261 3.14468 -18.7927
ltibia 47.7074
lfoot -13.9969 -0.414421
ltoes -26.2428
1268
root 2.00874 17.9366 11.2027 -173.728 1.82169 179.243
lowerback 4.64328 0.267966 -1.12764
upperback 0.14282 0.401528 2.18299
thorax -2.48027 0.246202 2.85412
lowerneck -16.8624 -0.998211 -7.91152
upperneck 37.299 6.15859 -1.46654
head 16.0875 2.53378 2.2566
rclavicle 1.98785e-016 -3.18055e-015
rhumerus -31.8292 -6.35923 -80.1206
rradius 31.297
rwrist 23.486
rhand -17.4376 3.24424
rfingers 7.12502
rthumb 8.81307 -26.5517
lclavicle 1.98785e-016 -3.18055e-015
lhumerus -36.6573 17.204 77.6765
lradius 32.5306
lwrist -11.0502
lhand -11.9359 27.102
lfingers 7.12502
lthumb 14.1188 56.6023
rfemur -16.3523 1.31087 24.1414
rtibia 26.1239
rfoot -14.8464 -1.93486
rtoes 14.354
lfemur -21.2502 3.31062 -19.0167
ltibia 47.5499
lfoot -14.0306 -0.573674
ltoes -25.6272
